<svg id="factory" xmlns="http://www.w3.org/2000/svg" width="51.584" height="51.584" viewBox="0 0 51.584 51.584">
  <g id="Grupo_674" data-name="Grupo 674" transform="translate(0 13.73)">
    <g id="Grupo_673" data-name="Grupo 673">
      <path id="Trazado_8407" data-name="Trazado 8407" d="M50.829,172.618H48.354V162.232a2.369,2.369,0,0,0-1.563-4.151H41.847l-.763-12.214a.756.756,0,0,0-.754-.708H37.1a.756.756,0,0,0-.754.708l-.763,12.214H33.771l-.763-12.214a.756.756,0,0,0-.754-.708h-3.23a.756.756,0,0,0-.754.708l-.763,12.214H25.694l-.763-12.214a.756.756,0,0,0-.754-.708h-3.23a.756.756,0,0,0-.754.708l-.763,12.214h-2.1l-.468-21.067a.756.756,0,0,0-.755-.739H11.255a.756.756,0,0,0-.755.739l-.54,24.3H3.986a2.369,2.369,0,0,0-1.563,4.151v7.156H.756a.756.756,0,1,0,0,1.511H50.829a.756.756,0,1,0,0-1.511ZM9.888,164.542H7.217a.756.756,0,0,0,0,1.511H9.854l-.146,6.565H3.934v-6.566h.052a.756.756,0,1,0,0-1.511.86.86,0,1,1,0-1.719h5.94ZM37.809,146.67H39.62l.713,11.411H37.1Zm-8.076,0h1.811l.713,11.411H29.019Zm-8.076,0h1.811l.713,11.411H20.943Zm-8.734,25.948h-1.7l.774-34.832h3.368l.451,20.295H14.485a2.369,2.369,0,0,0-1.563,4.151Zm33.868-11.307H45.175a.756.756,0,0,0,0,1.511h1.667v9.8H14.433v-9.8H41.945a.756.756,0,1,0,0-1.511H14.485a.86.86,0,1,1,0-1.719H46.791a.86.86,0,1,1,0,1.719Z" transform="translate(0 -136.275)" fill="#707070"/>
    </g>
  </g>
  <g id="Grupo_676" data-name="Grupo 676" transform="translate(12.114)">
    <g id="Grupo_675" data-name="Grupo 675">
      <path id="Trazado_8408" data-name="Trazado 8408" d="M150.072,0a9.578,9.578,0,0,0-6.181,2.25,7.192,7.192,0,0,0-9.373.631,5.59,5.59,0,0,0-7.342,2.9,3.434,3.434,0,0,0-.929-.128,3.579,3.579,0,0,0-3.383,2.437,2.281,2.281,0,0,0-.252-.014,2.374,2.374,0,0,0-2.371,2.371.756.756,0,0,0,1.511,0,.861.861,0,0,1,.86-.86.843.843,0,0,1,.437.126.756.756,0,0,0,1.142-.6,2.068,2.068,0,0,1,2.055-1.946,2.038,2.038,0,0,1,1.008.276.756.756,0,0,0,1.1-.465,4.081,4.081,0,0,1,5.957-2.511.756.756,0,0,0,.944-.164,5.684,5.684,0,0,1,8.147-.494.756.756,0,0,0,1.033-.015,8.123,8.123,0,1,1-1.5,9.737.756.756,0,0,0-.979-.324,5.678,5.678,0,0,1-6.7-1.456.756.756,0,0,0-.944-.164,4.075,4.075,0,0,1-5.251-1.074.756.756,0,0,0-.6-.3h0a.756.756,0,0,0-.595.289,2.055,2.055,0,0,1-1.622.8.756.756,0,0,0,0,1.511,3.531,3.531,0,0,0,2.183-.753,5.585,5.585,0,0,0,6.088,1.1,7.206,7.206,0,0,0,5.055,2.073,7.122,7.122,0,0,0,2.378-.407A9.64,9.64,0,1,0,150.072,0Z" transform="translate(-120.241)" fill="#707070"/>
    </g>
  </g>
  <g id="Grupo_678" data-name="Grupo 678" transform="translate(18.576 41.997)">
    <g id="Grupo_677" data-name="Grupo 677">
      <path id="Trazado_8409" data-name="Trazado 8409" d="M185.127,416.839a.756.756,0,0,0-.756.756v1.615a.756.756,0,0,0,1.511,0v-1.615A.756.756,0,0,0,185.127,416.839Z" transform="translate(-184.371 -416.839)" fill="#707070"/>
    </g>
  </g>
  <g id="Grupo_680" data-name="Grupo 680" transform="translate(21.806 41.997)">
    <g id="Grupo_679" data-name="Grupo 679">
      <path id="Trazado_8410" data-name="Trazado 8410" d="M217.192,416.839a.756.756,0,0,0-.756.756v1.615a.756.756,0,0,0,1.511,0v-1.615A.756.756,0,0,0,217.192,416.839Z" transform="translate(-216.436 -416.839)" fill="#707070"/>
    </g>
  </g>
  <g id="Grupo_682" data-name="Grupo 682" transform="translate(25.037 41.997)">
    <g id="Grupo_681" data-name="Grupo 681">
      <path id="Trazado_8411" data-name="Trazado 8411" d="M249.256,416.839a.756.756,0,0,0-.756.756v1.615a.756.756,0,0,0,1.511,0v-1.615A.756.756,0,0,0,249.256,416.839Z" transform="translate(-248.5 -416.839)" fill="#707070"/>
    </g>
  </g>
  <g id="Grupo_684" data-name="Grupo 684" transform="translate(28.267 41.997)">
    <g id="Grupo_683" data-name="Grupo 683">
      <path id="Trazado_8412" data-name="Trazado 8412" d="M281.32,416.839a.756.756,0,0,0-.756.756v1.615a.756.756,0,1,0,1.511,0v-1.615A.756.756,0,0,0,281.32,416.839Z" transform="translate(-280.564 -416.839)" fill="#707070"/>
    </g>
  </g>
  <g id="Grupo_686" data-name="Grupo 686" transform="translate(31.498 41.997)">
    <g id="Grupo_685" data-name="Grupo 685">
      <path id="Trazado_8413" data-name="Trazado 8413" d="M313.385,416.839a.756.756,0,0,0-.756.756v1.615a.756.756,0,0,0,1.511,0v-1.615A.756.756,0,0,0,313.385,416.839Z" transform="translate(-312.629 -416.839)" fill="#707070"/>
    </g>
  </g>
  <g id="Grupo_688" data-name="Grupo 688" transform="translate(34.728 41.997)">
    <g id="Grupo_687" data-name="Grupo 687">
      <path id="Trazado_8414" data-name="Trazado 8414" d="M345.449,416.839a.756.756,0,0,0-.756.756v1.615a.756.756,0,1,0,1.511,0v-1.615A.756.756,0,0,0,345.449,416.839Z" transform="translate(-344.693 -416.839)" fill="#707070"/>
    </g>
  </g>
  <g id="Grupo_690" data-name="Grupo 690" transform="translate(37.959 41.997)">
    <g id="Grupo_689" data-name="Grupo 689">
      <path id="Trazado_8415" data-name="Trazado 8415" d="M377.514,416.839a.756.756,0,0,0-.756.756v1.615a.756.756,0,0,0,1.511,0v-1.615A.756.756,0,0,0,377.514,416.839Z" transform="translate(-376.758 -416.839)" fill="#707070"/>
    </g>
  </g>
  <g id="Grupo_692" data-name="Grupo 692" transform="translate(41.189 41.997)">
    <g id="Grupo_691" data-name="Grupo 691">
      <path id="Trazado_8416" data-name="Trazado 8416" d="M409.579,416.839a.756.756,0,0,0-.756.756v1.615a.756.756,0,0,0,1.511,0v-1.615A.756.756,0,0,0,409.579,416.839Z" transform="translate(-408.823 -416.839)" fill="#707070"/>
    </g>
  </g>
</svg>
