<svg xmlns="http://www.w3.org/2000/svg" width="51.585" height="51.584" viewBox="0 0 51.585 51.584">
  <g id="technology" transform="translate(0 0)">
    <g id="Page-1_17_" transform="translate(0 0)">
      <g id="_x30_19---Technology-Engineering" transform="translate(0 0)">
        <path id="Shape_65_" d="M2.137,22.282a2.407,2.407,0,0,0-2,2.076,22.247,22.247,0,0,0-.005,4.831,2.423,2.423,0,0,0,2.01,2.119l2.736.448A21.133,21.133,0,0,0,7.5,38.081L5.889,40.33a2.412,2.412,0,0,0,.038,2.914,23.012,23.012,0,0,0,1.633,1.8c.528.529,1.112,1.06,1.812,1.649a2.4,2.4,0,0,0,2.882.034l2.26-1.621a21.125,21.125,0,0,0,6.319,2.626l.449,2.74a2.407,2.407,0,0,0,2.076,2c.49.055.988.094,1.489.114h.073a1.749,1.749,0,0,0,1.2-.481,1.7,1.7,0,0,0,.527-1.236v-6.89A1.726,1.726,0,0,0,25,42.262a15.488,15.488,0,0,1,0-30.934,1.727,1.727,0,0,0,1.652-1.719V2.722A1.727,1.727,0,0,0,24.852,1c-.5.02-1,.056-1.505.107a2.4,2.4,0,0,0-2.063,2.013l-.448,2.737a21.132,21.132,0,0,0-6.319,2.627l-2.26-1.618a2.407,2.407,0,0,0-2.9.046A23.411,23.411,0,0,0,7.565,8.54a20.791,20.791,0,0,0-1.649,1.814,2.407,2.407,0,0,0-.041,2.892L7.5,15.509a21.118,21.118,0,0,0-2.621,6.324Zm4.293.48a19.475,19.475,0,0,1,2.825-6.807.86.86,0,0,0-.02-.974L7.274,12.242a.688.688,0,0,1-.013-.813A18.946,18.946,0,0,1,8.775,9.765a22.049,22.049,0,0,1,1.642-1.5.688.688,0,0,1,.834,0l2.734,1.962a.86.86,0,0,0,.974.018,19.442,19.442,0,0,1,6.8-2.826.86.86,0,0,0,.675-.7l.541-3.311a.682.682,0,0,1,.562-.584c.455-.047.916-.081,1.392-.1l-.019,6.887a17.206,17.206,0,0,0,.019,34.368l-.012,6.89q-.693-.028-1.37-.106a.675.675,0,0,1-.571-.574l-.542-3.313a.86.86,0,0,0-.675-.7,19.447,19.447,0,0,1-6.8-2.827.86.86,0,0,0-.974.019l-2.737,1.964a.676.676,0,0,1-.8.021c-.632-.532-1.18-1.032-1.673-1.524a21.719,21.719,0,0,1-1.5-1.64.7.7,0,0,1,0-.836l1.959-2.736a.86.86,0,0,0,.019-.974A19.467,19.467,0,0,1,6.43,30.831a.86.86,0,0,0-.7-.675l-3.31-.543A.7.7,0,0,1,1.839,29a20.332,20.332,0,0,1,.005-4.449.676.676,0,0,1,.573-.573l3.309-.542a.859.859,0,0,0,.7-.678Z" transform="translate(0 -1)" fill="#707070"/>
        <path id="Shape_64_" d="M178.711,42.663a2.579,2.579,0,0,0-2.421,1.719H156.358V41.8h13.756a2.579,2.579,0,0,0,2.579-2.579V34.767a2.579,2.579,0,1,0-1.72,0v4.457a.86.86,0,0,1-.86.86H156.358V37.5h9.457a.86.86,0,0,0,0-1.72h-9.457V34.066h5.158a2.579,2.579,0,0,0,2.579-2.579V26.17a2.579,2.579,0,1,0-1.72,0v5.317a.86.86,0,0,1-.86.86h-5.385a1.589,1.589,0,0,0-1.509-.832,13.756,13.756,0,0,0,0,27.456h.1a1.585,1.585,0,0,0,1.408-.832h5.385a.86.86,0,0,1,.86.86v5.317a2.579,2.579,0,1,0,1.72,0V59a2.579,2.579,0,0,0-2.579-2.579h-5.158V54.7h9.457a.86.86,0,0,0,0-1.719h-9.457V50.4h13.756a.86.86,0,0,1,.86.86v4.457a2.579,2.579,0,1,0,1.72,0V51.26a2.579,2.579,0,0,0-2.579-2.579H156.358V46.1H176.29a2.575,2.575,0,1,0,2.421-3.439Zm-6.878-11.176a.86.86,0,1,1-.86.86A.86.86,0,0,1,171.833,31.486Zm-8.6-8.6a.86.86,0,1,1-.86.86A.86.86,0,0,1,163.236,22.889Zm0,44.706a.86.86,0,1,1,.86-.86A.86.86,0,0,1,163.236,67.6Zm8.6-8.6a.86.86,0,1,1,.86-.86A.86.86,0,0,1,171.833,59ZM143.462,45.242a12.051,12.051,0,0,1,11.177-12.005V57.248a12.051,12.051,0,0,1-11.177-12.005Zm35.249.86a.86.86,0,1,1,.86-.86A.86.86,0,0,1,178.711,46.1Z" transform="translate(-129.706 -19.448)" fill="#707070"/>
      </g>
    </g>
  </g>
</svg>
