<svg id="_021---Gears-Cutting" data-name="021---Gears-Cutting" xmlns="http://www.w3.org/2000/svg" width="51.896" height="51.887" viewBox="0 0 51.896 51.887">
  <path id="Shape" d="M24.717,38.435A5.717,5.717,0,1,0,19,32.717,5.717,5.717,0,0,0,24.717,38.435Zm0-9.676a3.958,3.958,0,1,1-3.958,3.958A3.958,3.958,0,0,1,24.717,28.759Z" transform="translate(-2.287 -3.251)" fill="#707070"/>
  <path id="Shape-2" data-name="Shape" d="M2.164,25.352A2.639,2.639,0,0,0,0,27.99v4.978a2.639,2.639,0,0,0,2.164,2.639l5.146.932c.053.141.114.281.176.413L4.5,41.167a2.639,2.639,0,0,0,.308,3.369L8.33,48.054a2.639,2.639,0,0,0,3.369.3L16,45.371l.413.176.932,5.146a2.639,2.639,0,0,0,2.639,2.164h4.978A2.639,2.639,0,0,0,27.6,50.693l.932-5.146.413-.176,4.3,2.982a2.639,2.639,0,0,0,3.369-.308l2.832-2.823a.884.884,0,0,0-1.214-1.284L35.368,46.8a.88.88,0,0,1-1.117.106l-3.518-2.445a16.079,16.079,0,0,0,5.119-4.794.881.881,0,0,0-1.46-.985A14.513,14.513,0,1,1,26.168,16.45a.881.881,0,1,0,.44-1.706,16.563,16.563,0,0,0-8.295,0l.756-4.213a.88.88,0,0,1,.88-.721h2.92a.88.88,0,0,0,0-1.759H19.94A2.639,2.639,0,0,0,17.3,10.214l-.932,5.146-.413.176L11.7,12.509a2.639,2.639,0,0,0-3.369.308L4.811,16.336a2.639,2.639,0,0,0-.3,3.369l2.982,4.3c-.062.132-.123.273-.176.413Zm-.4,7.573V27.946a.88.88,0,0,1,.721-.88l4.2-.756a16.316,16.316,0,0,0,0,8.233l-4.2-.756a.88.88,0,0,1-.721-.862ZM26.546,46.18l-.756,4.2a.88.88,0,0,1-.88.721H19.94a.88.88,0,0,1-.88-.721l-.756-4.2A16.22,16.22,0,0,0,26.546,46.18Zm-12.314-1.7-3.518,2.436a.88.88,0,0,1-1.117-.1L6.078,43.3a.88.88,0,0,1-.106-1.117l2.436-3.518a16.3,16.3,0,0,0,5.814,5.814Zm-8.189-26.9,3.518-3.518a.88.88,0,0,1,1.117-.106L14.2,16.4a16.3,16.3,0,0,0-5.84,5.84L5.92,18.719A.88.88,0,0,1,6.043,17.585Z" transform="translate(0 -0.969)" fill="#707070"/>
  <path id="Shape-3" data-name="Shape" d="M53.629,0H30.759A1.759,1.759,0,0,0,29,1.759V9.676a1.689,1.689,0,0,0,.88,1.5,1.9,1.9,0,0,0,1.179.255C33.583,17.759,33,16.29,33.9,18.524a1.759,1.759,0,0,0-1.381,1.706v2.639a1.759,1.759,0,0,0,1.759,1.759h.88v2.639a1.759,1.759,0,0,0,1.759,1.759h.88V34.3a.88.88,0,0,0,.352.7l3.167,2.375v3.079a.88.88,0,1,0,1.759,0V37.383l3.167-2.375a.88.88,0,0,0,.352-.7V29.027h.88a1.759,1.759,0,0,0,1.759-1.759V24.629h.88a1.759,1.759,0,0,0,1.759-1.759V20.231a1.759,1.759,0,0,0-1.363-1.706l2.841-7.09h.281a1.759,1.759,0,0,0,1.759-1.759V1.759A1.759,1.759,0,0,0,53.629,0Zm-8.8,33.864-2.639,1.979-2.639-1.979V29.027h5.278ZM50.11,22.869H42.194a.88.88,0,0,0,0,1.759h5.278v2.639H36.916V24.629h1.759a.88.88,0,0,0,0-1.759h-4.4V20.231H50.11Zm-1.478-4.4H35.755l-2.815-7.037H51.412Zm5-8.8H30.759V1.759H53.629Z" transform="translate(-3.491 0)" fill="#707070"/>
  <path id="Shape-4" data-name="Shape" d="M33.88,5.759h1.759a.88.88,0,0,0,0-1.759H33.88a.88.88,0,1,0,0,1.759Z" transform="translate(-3.973 -0.482)" fill="#707070"/>
  <path id="Shape-5" data-name="Shape" d="M39.88,5.759H52.194a.88.88,0,0,0,0-1.759H39.88a.88.88,0,1,0,0,1.759Z" transform="translate(-4.696 -0.482)" fill="#707070"/>
  <path id="Shape-6" data-name="Shape" d="M18.94,22.484a.88.88,0,0,0-1.179-.387C14.049,23.953,12,27.665,12,32.556a.88.88,0,1,0,1.759,0c0-4.187,1.7-7.345,4.794-8.893A.88.88,0,0,0,18.94,22.484Z" transform="translate(-1.445 -2.649)" fill="#707070"/>
  <circle id="Oval" cx="0.88" cy="0.88" r="0.88" transform="translate(18.472 17.592)" fill="#707070"/>
</svg>
