<svg id="_025---Milling" data-name="025---Milling" xmlns="http://www.w3.org/2000/svg" width="46.172" height="46.249" viewBox="0 0 46.172 46.249">
  <path id="Shape" d="M50.155,7.923V2.539A1.539,1.539,0,0,0,48.616,1H25.539A1.539,1.539,0,0,0,24,2.539V7.923a1.539,1.539,0,0,0,1.539,1.539h2.308v3.846c0,.3-.308-.315,5.269,9.231a1.538,1.538,0,0,0,.885.692V36.386a.769.769,0,0,0,.346.638c2.508,1.669,2.415,1.669,2.731,1.669s.208,0,2.731-1.669a.769.769,0,0,0,.346-.638V23.239a1.538,1.538,0,0,0,.885-.692c5.569-9.546,5.269-8.939,5.269-9.239V9.462h2.308A1.539,1.539,0,0,0,50.155,7.923ZM38.616,28.278l-3.077,2.054V28.339l3.077-2.054Zm-3.077,3.908,3.077-2.054v1.992l-3.077,2.054Zm3.077-7.754-3.077,2.054V23.308h3.077ZM37.077,37l-1.539-1,3.077-2.023V35.97ZM44.77,12.539H36.308a.769.769,0,1,0,0,1.539H44.2L39.716,21.77H34.439l-4.485-7.693h2.508a.769.769,0,1,0,0-1.539H29.385V9.462H44.77Zm3.846-4.616H25.539V2.539h1.539V4.077a.769.769,0,0,0,1.539,0V2.539h1.539V4.077a.769.769,0,1,0,1.539,0V2.539h1.539V4.077a.769.769,0,1,0,1.538,0V2.539h1.539V4.077a.769.769,0,1,0,1.539,0V2.539h1.539V4.077a.769.769,0,1,0,1.539,0V2.539h1.539V4.077a.769.769,0,0,0,1.539,0V2.539h1.539V4.077a.769.769,0,0,0,1.539,0V2.539h1.539Z" transform="translate(-6.29 -0.906)" fill="#707070"/>
  <path id="Shape-2" data-name="Shape" d="M46.386,46H39.847a2.308,2.308,0,0,0-2.069,1.377c-.938,1.969-6.316,4.008-13.7,4.008s-12.77-2.039-13.7-4.008A2.308,2.308,0,0,0,8.308,46H1.769A.769.769,0,0,0,1,46.769v10a.769.769,0,0,0,.769.769H46.386a.769.769,0,0,0,.769-.769v-10A.769.769,0,0,0,46.386,46Zm-.769,10H2.539V47.539H8.308a.769.769,0,0,1,.677.492c1.369,2.885,7.577,4.892,15.093,4.892S37.8,50.916,39.17,48.031a.769.769,0,0,1,.677-.492h5.769Z" transform="translate(-0.983 -11.29)" fill="#707070"/>
  <path id="Shape-3" data-name="Shape" d="M31.376,44.468a.772.772,0,0,0,1.092-1.092l-6.154-6.154a.772.772,0,0,0-1.092,1.092Z" transform="translate(-6.52 -9.212)" fill="#707070"/>
  <path id="Shape-4" data-name="Shape" d="M47.222,44.468a.769.769,0,0,0,1.092,0l6.154-6.154a.772.772,0,1,0-1.092-1.092l-6.154,6.154a.769.769,0,0,0,0,1.092Z" transform="translate(-11.596 -9.212)" fill="#707070"/>
  <circle id="Oval" cx="0.769" cy="0.769" r="0.769" transform="translate(16.171 25.479)" fill="#707070"/>
  <circle id="Oval-2" data-name="Oval" cx="0.769" cy="0.769" r="0.769" transform="translate(43.864 25.479)" fill="#707070"/>
  <path id="Shape-5" data-name="Shape" d="M32.834,38.369a.769.769,0,0,0,.6-1.246l-3.077-3.846a.769.769,0,1,0-1.2.954l3.077,3.846a.769.769,0,0,0,.6.292Z" transform="translate(-7.432 -8.275)" fill="#707070"/>
  <path id="Shape-6" data-name="Shape" d="M47.77,38.385a.769.769,0,0,0,.6-.292l3.077-3.846a.766.766,0,1,0-1.2-.954L47.17,37.139a.769.769,0,0,0,.6,1.246Z" transform="translate(-11.599 -8.29)" fill="#707070"/>
  <path id="Shape-7" data-name="Shape" d="M12.864,34.511A2.308,2.308,0,0,0,15.9,33.28,7.854,7.854,0,0,0,12.4,23.08a3.277,3.277,0,0,1-1.492-4.354A7.846,7.846,0,0,0,7.418,8.541,3.285,3.285,0,0,1,5.926,4.187,2.308,2.308,0,1,0,1.687,2.372a7.846,7.846,0,0,0,3.485,10.2,3.285,3.285,0,0,1,1.492,4.362,7.846,7.846,0,0,0,3.492,10.193,3.285,3.285,0,0,1,1.492,4.362,2.308,2.308,0,0,0,1.215,3.023ZM10.9,25.788A6.362,6.362,0,0,1,8.08,17.534a4.8,4.8,0,0,0-2.154-6.308A6.346,6.346,0,0,1,3.095,2.98a.769.769,0,1,1,1.415.6A4.808,4.808,0,0,0,6.672,9.887,6.346,6.346,0,0,1,9.5,18.134a4.8,4.8,0,0,0,2.162,6.308A6.362,6.362,0,0,1,14.48,32.7a.77.77,0,0,1-1.415-.608,4.792,4.792,0,0,0-2.162-6.3Z" transform="translate(-0.978 -0.878)" fill="#707070"/>
  <path id="Shape-8" data-name="Shape" d="M25.223,18.453a2.31,2.31,0,0,0-4.292,1.708c.769,2,.046,2.646.046,2.646a2.308,2.308,0,0,0,2.608,3.808C23.747,26.507,27.431,23.976,25.223,18.453ZM22.731,25.33a.768.768,0,1,1-.831-1.292c.285-.215,1.646-1.492.462-4.446a.77.77,0,0,1,1.431-.569c1.746,4.369-.938,6.231-1.062,6.308Z" transform="translate(-5.368 -4.597)" fill="#707070"/>
  <path id="Shape-9" data-name="Shape" d="M5.613,35.048A2.319,2.319,0,0,0,1,35.5c0,.185.462,4.616,6.369,5.385a2.32,2.32,0,1,0,.554-4.608c-2.115-.262-2.308-1.231-2.308-1.231Zm2.823,3.608a.769.769,0,0,1-.862.677c-4.685-.569-5.039-3.823-5.039-3.969a.771.771,0,1,1,1.539-.108c.054.362.515,2.162,3.677,2.546a.769.769,0,0,1,.669.854Z" transform="translate(-0.981 -8.284)" fill="#707070"/>
  <path id="Shape-10" data-name="Shape" d="M6.539,55H5.769a.769.769,0,1,0,0,1.539h.769a.769.769,0,1,0,0-1.539Z" transform="translate(-1.906 -13.367)" fill="#707070"/>
  <path id="Shape-11" data-name="Shape" d="M16.154,55H10.769a.769.769,0,1,0,0,1.539h5.385a.769.769,0,1,0,0-1.539Z" transform="translate(-3.06 -13.367)" fill="#707070"/>
</svg>
