<svg id="lathe-machine" xmlns="http://www.w3.org/2000/svg" width="49.979" height="41.174" viewBox="0 0 49.979 41.174">
  <g id="Grupo_694" data-name="Grupo 694" transform="translate(0 0)">
    <g id="Grupo_693" data-name="Grupo 693" transform="translate(0 0)">
      <path id="Trazado_8420" data-name="Trazado 8420" d="M48.909,50.644H45.772A1.07,1.07,0,0,0,44.7,51.714v3.547H42.724V52.052a1.07,1.07,0,0,0-1.069-1.069h-9.09a1.063,1.063,0,0,0-.512.131l-4.952,2.7a2.85,2.85,0,0,0-1.282,1.446H21.745a1.069,1.069,0,0,0,0,2.139h4.073A2.85,2.85,0,0,0,27.1,58.846h0l4.953,2.7a1.065,1.065,0,0,0,.512.131h3.208v8.556H30.657V66.49a1.07,1.07,0,0,0-1.069-1.069H19.428a1.07,1.07,0,0,0-1.069,1.069v3.743H10.694V64.674l3.86-.858h4.16a1.07,1.07,0,0,0,1.069-1.069V58.469A1.07,1.07,0,0,0,18.715,57.4H15.507V55.261h3.208a1.07,1.07,0,0,0,1.069-1.069V49.914a1.07,1.07,0,0,0-1.069-1.069h-4.16l-3.86-.858V46.17A1.07,1.07,0,0,0,9.625,45.1H1.069A1.07,1.07,0,0,0,0,46.17V85.205a1.07,1.07,0,0,0,1.069,1.069H41.655a1.07,1.07,0,0,0,1.069-1.069V57.4H44.7v3.547a1.069,1.069,0,0,0,2.139,0V52.783H48.91a1.069,1.069,0,1,0,0-2.139ZM31.5,58.807l-3.371-1.839a.714.714,0,0,1-.372-.627V56.32a.713.713,0,0,1,.372-.627L31.5,53.854ZM15.507,50.983h2.139v2.139H15.507Zm0,8.556h2.139v2.139H15.507Zm-4.813-9.361,2.674.594V61.889l-2.674.594V50.177Zm9.8,17.382h8.021v2.674H20.5ZM2.139,47.24H8.556V65.421H2.139Zm0,20.32H8.556v2.674H2.139ZM40.586,78.789H35.167a1.069,1.069,0,1,0,0,2.139h5.419v3.208H2.139V77.719H7.451a1.069,1.069,0,1,0,0-2.139H2.139V72.372H40.586v6.417Zm0-8.556H37.912V61.678h2.674Zm0-10.695H33.634V53.122h6.951v6.417Z" transform="translate(0 -45.101)" fill="#707070"/>
      <path id="Trazado_8421" data-name="Trazado 8421" d="M110.079,359.48h.107a1.069,1.069,0,1,0,0-2.139h-.107a1.069,1.069,0,1,0,0,2.139Z" transform="translate(-98.369 -326.862)" fill="#707070"/>
      <path id="Trazado_8422" data-name="Trazado 8422" d="M310.022,392.347h.107a1.069,1.069,0,0,0,0-2.139h-.107a1.069,1.069,0,1,0,0,2.139Z" transform="translate(-278.795 -356.52)" fill="#707070"/>
      <path id="Trazado_8423" data-name="Trazado 8423" d="M151.711,359.48a1.07,1.07,0,1,0-.756-.313A1.077,1.077,0,0,0,151.711,359.48Z" transform="translate(-135.937 -326.862)" fill="#707070"/>
    </g>
  </g>
</svg>
