<svg id="lathe-machine_1_" data-name="lathe-machine (1)" xmlns="http://www.w3.org/2000/svg" width="50.344" height="50.344" viewBox="0 0 50.344 50.344">
  <path id="Trazado_8417" data-name="Trazado 8417" d="M42.872,29a4.872,4.872,0,1,0,4.872,4.872A4.877,4.877,0,0,0,42.872,29Zm3.248,4.872a3.205,3.205,0,0,1-.46,1.639L44.02,33.872l1.639-1.639A3.205,3.205,0,0,1,46.12,33.872Zm-1.609-2.788-1.639,1.639-1.639-1.639a3.149,3.149,0,0,1,3.279,0Zm-4.427,4.427a3.149,3.149,0,0,1,0-3.279l1.639,1.639Zm1.148,1.148,1.639-1.639,1.639,1.639a3.149,3.149,0,0,1-3.279,0Z" transform="translate(-7.956 -6.264)" fill="#707070"/>
  <path id="Trazado_8418" data-name="Trazado 8418" d="M20.06,30a4.06,4.06,0,1,0,4.06,4.06A4.065,4.065,0,0,0,20.06,30ZM22.5,34.06a2.4,2.4,0,0,1-.244,1.043L21.208,34.06l1.043-1.043A2.4,2.4,0,0,1,22.5,34.06ZM21.1,31.868,20.06,32.912l-1.043-1.043a2.349,2.349,0,0,1,2.087,0ZM17.868,35.1a2.349,2.349,0,0,1,0-2.087l1.043,1.043Zm1.148,1.148,1.043-1.043L21.1,36.252a2.349,2.349,0,0,1-2.087,0Z" transform="translate(-3.82 -6.452)" fill="#707070"/>
  <path id="Trazado_8419" data-name="Trazado 8419" d="M50.532,32.668a.811.811,0,0,0,.812-.812V28.608a.811.811,0,0,0-.812-.812V14.8A5.689,5.689,0,0,0,45.66,9.185V3.436a2.436,2.436,0,0,0-4.872,0H37.54V2.624a.811.811,0,0,0-.812-.812H33.48a2.436,2.436,0,1,0,0,4.872h3.248a.811.811,0,0,0,.812-.812V5.06h3.248V9.12H38.352A4.045,4.045,0,0,0,35.1,10.769v-.025h-6.5a.808.808,0,0,0-.574.238L26.41,12.606a.811.811,0,0,0,0,1.148l1.624,1.624a.808.808,0,0,0,.574.238h6.5v-.025a4.045,4.045,0,0,0,3.248,1.649H41.6V21.3H32.668V18.864a.811.811,0,0,0-.812-.812h-8.12a.811.811,0,0,0-.812.812V21.3H19.676V13.992h4.06a.811.811,0,0,0,.812-.812V9.932a.811.811,0,0,0-.812-.812h-6.5A2.439,2.439,0,0,0,14.8,11.556V21.3H12.368V16.428a.811.811,0,0,0-.812-.812V13.18a.811.811,0,0,0-.812-.812H9.932V10.744h.812a.811.811,0,0,0,.812-.812V6.684a.811.811,0,0,0-.812-.812H9.932V5.06h4.06v.812a.811.811,0,0,0,.812.812h3.248a2.436,2.436,0,1,0,0-4.872H14.8a.811.811,0,0,0-.812.812v.812H9.817a3.241,3.241,0,0,0-6.381.812V5.872H2.624a.811.811,0,0,0-.812.812V9.932a.811.811,0,0,0,.812.812h.812v1.624H2.624a.811.811,0,0,0-.812.812v2.436A.811.811,0,0,0,1,16.428V38.352a.811.811,0,0,0,.812.812H12.368v7.308H10.744a.811.811,0,0,0-.812.812v3.248a.811.811,0,0,0,.812.812h9.744a.811.811,0,0,0,.812-.812V47.284a.811.811,0,0,0-.812-.812H18.864V39.164h6.5v.961a2.436,2.436,0,1,0,1.624,0v-.961h6.5v7.308H31.856a.811.811,0,0,0-.812.812v3.248a.811.811,0,0,0,.812.812H41.6a.811.811,0,0,0,.812-.812V47.284a.811.811,0,0,0-.812-.812H39.976V39.164H50.532a.811.811,0,0,0,.812-.812V35.1a.811.811,0,0,0-.812-.812H43.224V32.668ZM35.916,5.06H33.48a.812.812,0,1,1,0-1.624h2.436Zm-6.972,8.932-.812-.812.812-.812h5.43a4.061,4.061,0,0,0,0,1.624ZM15.616,3.436h2.436a.812.812,0,0,1,0,1.624H15.616ZM26.172,43.224a.812.812,0,1,1,.812-.812A.812.812,0,0,1,26.172,43.224ZM49.72,31.044h-6.5V29.42h6.5ZM42.412,3.436a.812.812,0,1,1,1.624,0V9.12H42.412Zm-4.06,12.18a2.436,2.436,0,1,1,0-4.872h6.5a4.065,4.065,0,0,1,4.06,4.06V27.8H43.224V17.24A1.626,1.626,0,0,0,41.6,15.616Zm-13.8,4.06h6.5V21.3h-6.5ZM17.24,10.744h5.684v1.624h-4.06a.811.811,0,0,0-.812.812v4.872H16.428v-6.5A.812.812,0,0,1,17.24,10.744Zm-.812,8.932h1.624V21.3H16.428ZM10.744,34.292H2.624V17.24h8.12V34.292ZM5.06,4.248a1.624,1.624,0,0,1,3.248,0V5.872H5.06ZM3.436,7.5h6.5V9.12h-6.5ZM5.06,10.744H8.308v1.624H5.06ZM3.436,13.992h6.5v1.624h-6.5ZM19.676,49.72h-8.12V48.1h8.12ZM17.24,46.472H13.992V39.164H17.24ZM2.624,37.54V35.916H25.36V37.54ZM40.788,49.72h-8.12V48.1h8.12Zm-2.436-3.248H35.1V39.164h3.248ZM49.72,37.54H26.984V35.916H49.72ZM26.984,34.292V33.48h1.624a.811.811,0,0,0,.812-.812v-8.12a.811.811,0,0,0-.812-.812H23.736a.811.811,0,0,0-.812.812v8.12a.811.811,0,0,0,.812.812H25.36v.812H12.368V22.924H41.6V34.292ZM25.36,29.42v2.436h-.812V28.608H27.8v3.248h-.812V29.42ZM27.8,26.984H24.548V25.36H27.8Z" transform="translate(-1 -1)" fill="#707070"/>
  <circle id="Elipse_147" data-name="Elipse 147" cx="1.685" cy="1.685" r="1.685" transform="translate(3.932 17.762)" fill="#707070"/>
  <ellipse id="Elipse_148" data-name="Elipse 148" cx="1.404" cy="1.685" rx="1.404" ry="1.685" transform="translate(35.952 10.459)" fill="#707070"/>
  <circle id="Elipse_149" data-name="Elipse 149" cx="1.685" cy="1.685" r="1.685" transform="translate(3.932 28.435)" fill="#707070"/>
</svg>
