<svg xmlns="http://www.w3.org/2000/svg" width="96.335" height="95" viewBox="0 0 96.335 95">
  <path id="logo_chivilo2-02" data-name="logo chivilo2-02" d="M109.865,116.525,99.531,120.7c-.1-.439-.162-.57-.134-.593,1.54-1.2.8-2.457.2-3.807-1.63-3.718-3.15-7.479-4.757-11.2-2.164-5.017-4.365-10.013-6.547-15.027-.4-.917-.914-.822-1.733-.513a73.361,73.361,0,0,1-16.431,4.565c-6.95,1.356-15.918-1.181-18.86-3.291C45.262,86.535,44,85.344,39.067,77.6c-4.878-7.656-4.418-17.646-4.406-18.5A30.157,30.157,0,0,1,40.2,41.939a23.91,23.91,0,0,1,8.216-7.33,86.322,86.322,0,0,1,18.927-7.4,74.513,74.513,0,0,1,8.7-1.476c1.212-.185,1.877.434,2.2,1.63.513,1.977,1.191,3.913,1.728,5.884a3.3,3.3,0,0,1-.2,1.284,4.73,4.73,0,0,1-1.081-.5,10.674,10.674,0,0,0-6.036-2.2,24.743,24.743,0,0,0-9.6,1.284c-3.517,1.065-10.246,3.895-14.377,8.234-3.338,3.5-4.539,8.144-5.166,12.911a32.049,32.049,0,0,0,.467,10.452,37.161,37.161,0,0,0,5.392,13.16,20.816,20.816,0,0,0,17.281,9.171,37.6,37.6,0,0,0,12.737-2.644c1.386-.547,2.78-1.089,4.205-1.517.9-.272,1.078-.709.721-1.5-2.48-5.53-4.947-11.065-7.445-16.588-.454-1-1.053-1.946-1.576-2.922a1.564,1.564,0,0,0-2.246-.788,2.225,2.225,0,0,1-2.773-2.136,1.05,1.05,0,0,1,.393-.745q3.774-2.4,7.592-4.739a1.316,1.316,0,0,1,2.087.706c.683,1.517,1.332,3.053,1.972,4.588,1.774,4.254,3.553,8.508,5.3,12.775.937,2.288,1.846,4.585,2.709,6.9.313.845.791,1.055,1.564.716,2.567-1.13,5.155-2.254,7.723-3.409,3.235-1.451,6.513-2.991,10.169-2.478a8.8,8.8,0,0,1,4.208,1.9c2.662,2.226,4.223,5.243,5.451,8.493,1.54,4.108,3.307,8.154,5.053,12.193,1.386,3.2,2.852,6.372,4.365,9.515.285.593.97.994,1.458,1.494.257.257.655.539.662.819a1.145,1.145,0,0,1-.626.832q-3.13,1.317-6.308,2.508a3.87,3.87,0,0,1-1.225.046c.056-.383.136-.77.159-1.148a3.138,3.138,0,0,0-.026-1.248c-1.923-4.878-3.813-9.774-5.856-14.606-1.379-3.258-2.927-6.447-4.516-9.607a12.454,12.454,0,0,0-2.365-3.307,3.3,3.3,0,0,0-3.594-.655c-3.014,1.2-6,2.465-8.986,3.71a4.17,4.17,0,0,0-.552.329c-2.467,1.515-2.806,2.544-1.623,5.168q3.127,6.932,6.3,13.864c1.433,3.137,2.863,6.275,4.334,9.394a7.59,7.59,0,0,0,1.353,2.157A11.76,11.76,0,0,0,109.865,116.525Z" transform="translate(-34.644 -25.704)" fill="#fff"/>
</svg>
