<svg xmlns="http://www.w3.org/2000/svg" width="463.229" height="456.809" viewBox="0 0 463.229 456.809">
  <path id="logo_chivilo2-02" data-name="logo chivilo2-02" d="M396.345,462.415l-49.69,20.1c-.494-2.111-.778-2.741-.642-2.852,7.407-5.753,3.827-11.815.975-18.308-7.839-17.876-15.148-35.962-22.876-53.875-10.407-24.123-20.987-48.147-31.481-72.257-1.9-4.407-4.395-3.951-8.333-2.469-33.789,12.765-47.567,16.444-79.01,21.95-33.419,6.518-76.541-5.679-90.689-15.827-28.9-20.666-34.962-26.394-58.69-63.628-23.456-36.814-21.246-84.85-21.185-88.961a145.009,145.009,0,0,1,26.617-82.516,114.972,114.972,0,0,1,39.505-35.246c28.715-15.963,59.542-26.789,91.01-35.567,13.58-3.79,27.839-4.938,41.838-7.1,5.827-.889,9.024,2.086,10.555,7.839,2.469,9.506,5.728,18.814,8.308,28.3.506,1.852-.58,4.136-.938,6.173-1.753-.778-3.79-1.235-5.2-2.383-8.444-7.012-18.518-9.555-29.024-10.568-15.814-1.531-31.086,1.617-46.147,6.173-16.913,5.123-49.27,18.728-69.134,39.592C86.07,117.808,80.292,140.14,77.28,163.065a154.107,154.107,0,0,0,2.247,50.258c5.259,23.617,12.7,43.456,25.925,63.282,13.728,20.6,40.419,43,83.1,44.1a180.786,180.786,0,0,0,61.245-12.716c6.666-2.63,13.37-5.234,20.222-7.3,4.321-1.309,5.185-3.407,3.469-7.21-11.926-26.592-23.79-53.208-35.8-79.763-2.185-4.827-5.062-9.358-7.58-14.049s-5.864-5.716-10.8-3.79c-5.975,2.333-13.58-3.63-13.333-10.271a5.049,5.049,0,0,1,1.889-3.58Q226,170.473,244.362,159.238c4.457-2.716,7.987-1.148,10.037,3.395,3.284,7.3,6.407,14.679,9.481,22.061,8.531,20.456,17.086,40.912,25.493,61.43,4.506,11,8.876,22.049,13.024,33.2,1.506,4.062,3.8,5.074,7.518,3.444,12.345-5.432,24.789-10.839,37.135-16.395,15.555-6.975,31.32-14.382,48.9-11.913a42.3,42.3,0,0,1,20.234,9.123c12.8,10.7,20.308,25.209,26.209,40.838,7.407,19.753,15.9,39.209,24.3,58.628,6.666,15.407,13.716,30.641,20.987,45.752,1.37,2.852,4.667,4.778,7.012,7.185,1.235,1.235,3.148,2.593,3.185,3.938a5.506,5.506,0,0,1-3.012,4q-15.049,6.333-30.332,12.061c-1.741.654-3.914.185-5.889.222.272-1.839.654-3.7.765-5.518s.568-4.247-.123-6c-9.247-23.456-18.333-47-28.16-70.233-6.629-15.666-14.074-31-21.715-46.2a59.889,59.889,0,0,0-11.37-15.9,15.876,15.876,0,0,0-17.284-3.148c-14.493,5.753-28.839,11.852-43.209,17.839a20.046,20.046,0,0,0-2.654,1.58c-11.864,7.284-13.494,12.234-7.8,24.851q15.037,33.332,30.3,66.665c6.889,15.086,13.765,30.172,20.839,45.172,1.741,3.7,3.7,7.568,6.506,10.37C387.3,458.267,391.2,459.551,396.345,462.415Z" transform="translate(-34.644 -25.704)" fill="#fff"/>
</svg>
